<svg width="200.00000000000003" height="119.40890928512087" viewBox="0 0 200.00000000000003 119.40890928512087" class="css-1j8o68f"><defs id="SvgjsDefs1852"></defs><g id="SvgjsG1853" featurekey="symbolFeature-0" transform="matrix(18.84252950871014,0,0,18.84252950871014,52.89367398202009,-13.547778375339497)" fill="#111111"><g xmlns="http://www.w3.org/2000/svg"><g><polygon fill="#111111" points="2.558,4.282 1.015,3.392 1.014,1.61 2.556,0.719 3.985,1.544 3.76,1.934 2.556,1.238 1.464,1.87     1.464,3.131 2.558,3.762 3.762,3.065 3.986,3.456   "></polygon></g><g><polygon fill="#111111" points="2.557,3.464 1.829,3.045 2.054,2.654 2.557,2.944 2.946,2.719 2.946,2.268 2.557,2.043     2.054,2.333 1.829,1.944 2.556,1.523 3.396,2.008 3.396,2.979   "></polygon></g></g></g><g id="SvgjsG1854" featurekey="nameFeature-0" transform="matrix(1.1574610458971737,0,0,1.1574610458971737,-0.37038718145801663,73.11046744923391)" fill="#111111"><path d="M0.32 16 l0 -4 l13.6 0 l0 4 l-4.6 0 l0 24 l-4.4 0 l0 -24 l-4.6 0 z M17.768000000000004 35.76 l4.24 0 l0 4.24 l-4.24 0 l0 -4.24 z M33.93600000000001 16 l0 8.44 l5.68 0 l0 4 l-5.68 0 l0 11.56 l-4.4 0 l0 -28 l11.64 0 l0 4 l-7.24 0 z M52.024 16 l0 7.8 l6.04 0 l0 4 l-6.04 0 l0 8.2 l7.6 0 l0 4 l-12 0 l0 -28 l12 0 l0 4 l-7.6 0 z M80.352 40 l-4.48 0 c-0.24 -0.72 -0.4 -1.16 -0.4 -3.44 l0 -4.4 c0 -2.6 -0.88 -3.56 -2.88 -3.56 l-1.52 0 l0 11.4 l-4.4 0 l0 -28 l6.64 0 c4.56 0 6.52 2.12 6.52 6.44 l0 2.2 c0 2.88 -0.92 4.72 -2.88 5.64 l0 0.08 c2.2 0.92 2.92 3 2.92 5.92 l0 4.32 c0 1.36 0.04 2.36 0.48 3.4 z M73.19200000000001 16 l-2.12 0 l0 8.6 l1.72 0 c1.64 0 2.64 -0.72 2.64 -2.96 l0 -2.76 c0 -2 -0.68 -2.88 -2.24 -2.88 z M100.76 40 l-4.48 0 c-0.24 -0.72 -0.4 -1.16 -0.4 -3.44 l0 -4.4 c0 -2.6 -0.88 -3.56 -2.88 -3.56 l-1.52 0 l0 11.4 l-4.4 0 l0 -28 l6.64 0 c4.56 0 6.52 2.12 6.52 6.44 l0 2.2 c0 2.88 -0.92 4.72 -2.88 5.64 l0 0.08 c2.2 0.92 2.92 3 2.92 5.92 l0 4.32 c0 1.36 0.04 2.36 0.48 3.4 z M93.60000000000001 16 l-2.12 0 l0 8.6 l1.72 0 c1.64 0 2.64 -0.72 2.64 -2.96 l0 -2.76 c0 -2 -0.68 -2.88 -2.24 -2.88 z M111.888 16 l0 7.8 l6.04 0 l0 4 l-6.04 0 l0 8.2 l7.6 0 l0 4 l-12 0 l0 -28 l12 0 l0 4 l-7.6 0 z M126.536 40 l0 -28 l4.4 0 l0 28 l-4.4 0 z M152.144 40 l-4.48 0 c-0.24 -0.72 -0.4 -1.16 -0.4 -3.44 l0 -4.4 c0 -2.6 -0.88 -3.56 -2.88 -3.56 l-1.52 0 l0 11.4 l-4.4 0 l0 -28 l6.64 0 c4.56 0 6.52 2.12 6.52 6.44 l0 2.2 c0 2.88 -0.92 4.72 -2.88 5.64 l0 0.08 c2.2 0.92 2.92 3 2.92 5.92 l0 4.32 c0 1.36 0.04 2.36 0.48 3.4 z M144.984 16 l-2.12 0 l0 8.6 l1.72 0 c1.64 0 2.64 -0.72 2.64 -2.96 l0 -2.76 c0 -2 -0.68 -2.88 -2.24 -2.88 z M168.632 12 l4.48 28 l-4.44 0 l-0.76 -5.08 l-5.4 0 l-0.76 5.08 l-4.04 0 l4.48 -28 l6.44 0 z M165.152 16.96 l-2.08 14.16 l4.24 0 l-2.08 -14.16 l-0.08 0 z"></path></g></svg>