<svg width="100" height="100" viewBox="0 0 280 169.9861714416048" class="css-1j8o68f"><defs id="SvgjsDefs1232"></defs><g id="SvgjsG1233" featurekey="monogramFeature-0" transform="matrix(1.589939987917994,0,0,1.589939987917994,102.4159295665226,-33.830463872407286)" fill="#f8b500"><path d="M19.44 24.659999999999997 c-0.18 0.66 -0.36 1.5 -0.54 2.46 c5.58 -0.36 11.28 -0.54 16.44 -0.72 c12.6 -0.48 17.04 -0.24 18.18 -0.66 c1.14 -0.36 1.08 0.12 0.66 0.54 c-0.24 0.3 -1.26 1.08 -2.22 1.08 c-0.9 0.06 -9.36 0.06 -16.92 0.36 c-6.24 0.24 -11.7 0.48 -16.44 0.84 c-0.78 3.72 -1.8 9.24 -2.76 16.8 c-1.44 10.92 -4.26 27.6 -4.5 29.58 c-0.18 1.98 -1.56 4.08 -1.56 2.52 s1.08 -10.02 4.5 -31.86 c1.26 -8.16 2.28 -13.5 3.06 -16.98 c-3.84 0.3 -7.2 0.6 -9.9 1.02 c-7.32 1.14 -13.14 2.58 -13.38 4.02 c-0.18 1.02 -0.84 0.9 -1.14 0.24 c-0.42 -1.14 0.06 -2.34 9.96 -4.68 c4.38 -1.02 9.48 -1.62 14.76 -1.98 c1.08 -4.5 1.74 -5.16 2.22 -5.64 c0.9 -0.84 1.68 0.18 1.02 0.6 c-0.72 0.42 -1.08 0.96 -1.44 2.46 z"></path></g><g id="SvgjsG1234" featurekey="nameFeature-0" transform="matrix(0.8307083516563709,0,0,0.8307083516563709,-1.5783442638910354,100.03150136457398)" fill="#393e46"><path d="M22.9 12 c0.36 0 0.6 0.24 0.6 0.6 l0 1.68 c0 0.36 -0.24 0.6 -0.6 0.6 l-8.64 0 l0 24.52 c0 0.36 -0.24 0.6 -0.6 0.6 l-1.92 0 c-0.36 0 -0.6 -0.24 -0.6 -0.6 l0 -24.52 l-8.64 0 c-0.36 0 -0.6 -0.24 -0.6 -0.6 l0 -1.68 c0 -0.36 0.24 -0.6 0.6 -0.6 l20.4 0 z M57.203 27.4 c0.36 0 0.6 0.24 0.6 0.6 l0 1.4 c0 0.36 -0.24 0.6 -0.6 0.6 l-18.8 0 c-0.36 0 -0.6 -0.24 -0.6 -0.6 l0 -1.4 c0 -0.36 0.24 -0.6 0.6 -0.6 l18.8 0 z M91.80600000000001 12 c0.36 0 0.6 0.24 0.6 0.6 l0 1.68 c0 0.36 -0.24 0.6 -0.6 0.6 l-15.08 0 l0 9.24 l14.16 0 c0.36 0 0.6 0.24 0.6 0.6 l0 1.68 c0 0.36 -0.24 0.6 -0.6 0.6 l-14.16 0 l0 12.4 c0 0.36 -0.24 0.6 -0.6 0.6 l-1.92 0 c-0.36 0 -0.6 -0.24 -0.6 -0.6 l0 -26.8 c0 -0.36 0.24 -0.6 0.6 -0.6 l17.6 0 z M125.509 37.12 c0.36 0 0.6 0.24 0.6 0.6 l0 1.68 c0 0.36 -0.24 0.6 -0.6 0.6 l-17 0 c-0.36 0 -0.6 -0.24 -0.6 -0.6 l0 -26.8 c0 -0.36 0.24 -0.6 0.6 -0.6 l16.96 0 c0.36 0 0.6 0.24 0.6 0.6 l0 1.68 c0 0.36 -0.24 0.6 -0.6 0.6 l-14.44 0 l0 8.96 l13.36 0 c0.36 0 0.6 0.24 0.6 0.6 l0 1.68 c0 0.36 -0.24 0.6 -0.6 0.6 l-13.36 0 l0 10.4 l14.48 0 z M156.012 28.92 l5.48 10.38 c0.22 0.42 0.02 0.7 -0.44 0.7 l-2.06 0 c-0.32 0 -0.54 -0.14 -0.7 -0.44 l-5.36 -10.28 l-0.58 0 l-7.42 0 l0 10.12 c0 0.36 -0.24 0.6 -0.6 0.6 l-1.92 0 c-0.36 0 -0.6 -0.24 -0.6 -0.6 l0 -26.8 c0 -0.36 0.24 -0.6 0.6 -0.6 l9.94 0 c7.04 0 9.76 3.12 9.76 8.64 c0 4.44 -1.76 7.32 -6.1 8.28 z M144.93200000000002 14.879999999999999 l0 11.52 l7.62 0 c3.84 0 6.52 -1.08 6.52 -5.76 s-2.68 -5.76 -6.52 -5.76 l-7.62 0 z M191.315 28.92 l5.48 10.38 c0.22 0.42 0.02 0.7 -0.44 0.7 l-2.06 0 c-0.32 0 -0.54 -0.14 -0.7 -0.44 l-5.36 -10.28 l-0.58 0 l-7.42 0 l0 10.12 c0 0.36 -0.24 0.6 -0.6 0.6 l-1.92 0 c-0.36 0 -0.6 -0.24 -0.6 -0.6 l0 -26.8 c0 -0.36 0.24 -0.6 0.6 -0.6 l9.94 0 c7.04 0 9.76 3.12 9.76 8.64 c0 4.44 -1.76 7.32 -6.1 8.28 z M180.235 14.879999999999999 l0 11.52 l7.62 0 c3.84 0 6.52 -1.08 6.52 -5.76 s-2.68 -5.76 -6.52 -5.76 l-7.62 0 z M230.018 37.12 c0.36 0 0.6 0.24 0.6 0.6 l0 1.68 c0 0.36 -0.24 0.6 -0.6 0.6 l-17 0 c-0.36 0 -0.6 -0.24 -0.6 -0.6 l0 -26.8 c0 -0.36 0.24 -0.6 0.6 -0.6 l16.96 0 c0.36 0 0.6 0.24 0.6 0.6 l0 1.68 c0 0.36 -0.24 0.6 -0.6 0.6 l-14.44 0 l0 8.96 l13.36 0 c0.36 0 0.6 0.24 0.6 0.6 l0 1.68 c0 0.36 -0.24 0.6 -0.6 0.6 l-13.36 0 l0 10.4 l14.48 0 z M265.021 14.879999999999999 l-7.74 0 l0 22.24 l7.74 0 c0.36 0 0.6 0.24 0.6 0.6 l0 1.68 c0 0.36 -0.24 0.6 -0.6 0.6 l-18.6 0 c-0.36 0 -0.6 -0.24 -0.6 -0.6 l0 -1.68 c0 -0.36 0.24 -0.6 0.6 -0.6 l7.74 0 l0 -22.24 l-7.74 0 c-0.36 0 -0.6 -0.24 -0.6 -0.6 l0 -1.68 c0 -0.36 0.24 -0.6 0.6 -0.6 l18.6 0 c0.36 0 0.6 0.24 0.6 0.6 l0 1.68 c0 0.36 -0.24 0.6 -0.6 0.6 z M295.72400000000005 28.92 l5.48 10.38 c0.22 0.42 0.02 0.7 -0.44 0.7 l-2.06 0 c-0.32 0 -0.54 -0.14 -0.7 -0.44 l-5.36 -10.28 l-0.58 0 l-7.42 0 l0 10.12 c0 0.36 -0.24 0.6 -0.6 0.6 l-1.92 0 c-0.36 0 -0.6 -0.24 -0.6 -0.6 l0 -26.8 c0 -0.36 0.24 -0.6 0.6 -0.6 l9.94 0 c7.04 0 9.76 3.12 9.76 8.64 c0 4.44 -1.76 7.32 -6.1 8.28 z M284.644 14.879999999999999 l0 11.52 l7.62 0 c3.84 0 6.52 -1.08 6.52 -5.76 s-2.68 -5.76 -6.52 -5.76 l-7.62 0 z M338.90700000000004 39.32 c0.16 0.4 -0.04 0.68 -0.48 0.68 l-1.92 0 c-0.32 0 -0.54 -0.12 -0.68 -0.48 l-2.14 -5.72 l-13.48 0 l-2.14 5.72 c-0.14 0.36 -0.36 0.48 -0.68 0.48 l-1.92 0 c-0.44 0 -0.64 -0.28 -0.48 -0.68 l10.24 -26.84 c0.12 -0.32 0.4 -0.48 0.72 -0.48 l2 0 c0.32 0 0.6 0.16 0.72 0.48 z M321.247 31 l11.4 0 l-5.7 -15.2 z"></path></g><g id="SvgjsG1235" featurekey="sloganFeature-0" transform="matrix(1.2300440826292243,0,0,1.2300440826292243,47.20723686089572,145.3852897890203)" fill="#f8b500"><path d="M4.541 20 l-3.8965 -13.809 l2.0215 0 l3.1836 11.23 l3.3789 -11.23 l1.6992 0 l3.3789 11.23 l3.1934 -11.23 l2.0117 0 l-3.8965 13.809 l-2.334 0 l-3.2031 -10.273 l-3.2031 10.273 l-2.334 0 z M40.395288671875 7.939 l-5.5273 0 l0 4.2969 l4.873 0 l0 1.7383 l-4.873 0 l0 4.2676 l5.5273 0 l0 1.7578 l-7.5098 0 l0 -13.809 l7.5098 0 l0 1.748 z M61.00540859375 12.773399999999999 c1.6309 0.41016 2.7246 1.5332 2.7246 3.457 c0 2.2168 -1.5039 3.7695 -3.9844 3.7695 l-5.4297 0 l0 -13.809 l4.2383 0 c2.5488 0 4.1602 1.4844 4.1602 3.6719 c0 1.3086 -0.5957 2.3828 -1.709 2.9102 z M60.89790859375 9.99 c0 -1.1914 -0.85938 -2.1191 -2.3535 -2.1191 l-2.3438 0 l0 4.2969 l2.6465 0 c1.25 0 2.0508 -0.97656 2.0508 -2.1777 z M59.41360859375 18.291 c1.5723 0 2.4219 -1.0547 2.4219 -2.2559 c0 -1.2695 -0.88867 -2.2852 -2.5391 -2.2852 l-3.0957 0 l0 4.541 l3.2129 0 z M93.3193265625 20 l0 -13.809 l4.5508 0 c4.248 0 6.4063 2.8516 6.4063 6.8945 c0 4.0723 -2.1582 6.9141 -6.4063 6.9141 l-4.5508 0 z M95.2627265625 18.2422 l2.5293 0 c3.0176 0 4.4531 -2.002 4.4531 -5.1563 c0 -3.1348 -1.4355 -5.1465 -4.4531 -5.1465 l-2.5293 0 l0 10.303 z M125.706812109375 7.939 l-5.5273 0 l0 4.2969 l4.873 0 l0 1.7383 l-4.873 0 l0 4.2676 l5.5273 0 l0 1.7578 l-7.5098 0 l0 -13.809 l7.5098 0 l0 1.748 z M148.18183203125 6.191000000000001 l2.0508 0 l-5.0781 13.809 l-2.0313 0 l-5.0586 -13.809 l2.041 0 l4.043 11.426 z"></path></g></svg>